<?xml version="1.0" encoding="iso-8859-1"?>
<!-- Generator: Adobe Illustrator 16.0.0, SVG Export Plug-In . SVG Version: 6.00 Build 0)  -->
<!DOCTYPE svg PUBLIC "-//W3C//DTD SVG 1.1//EN" "http://www.w3.org/Graphics/SVG/1.1/DTD/svg11.dtd">
<svg fill="rgba(204, 255, 255, 0.1)" version="1.1" id="Capa_1" xmlns="http://www.w3.org/2000/svg" xmlns:xlink="http://www.w3.org/1999/xlink" x="0px" y="0px"
	 width="445.279px" height="445.279px" viewBox="0 0 445.279 445.279" style="enable-background:new 0 0 445.279 445.279;"
	 xml:space="preserve">
<g>
	<path d="M414.621,4.019l0.938-0.934l-5.17-0.088c-2.665-0.431-5.45-0.675-8.355-0.675c-3.51,0-5.75,0.364-5.75,0.364l-0.497,0.076
		L225.282,0c-9.097,0-20.757,4.787-27.112,11.146L11.582,197.742c-6.494,6.486-11.321,18.3-11.243,27.483l1.545,172.193
		c-0.444,3.427-0.511,7.582,0.11,12.011l0.066,7.146l1.176-1.179c3.389,12.311,12.511,24.931,32.901,28.349l9.153,1.535v-71.941
		L372.647,45.979h72.294l-1.531-9.155C440.513,19.61,430.018,8.053,414.621,4.019z M29.589,425.313
		c-11.722-6.147-12.537-18.582-12.285-23.979l12.285-12.283V425.313z M22.683,208.843L209.267,22.247
		c3.43-3.431,11.062-6.548,16.188-6.548l0,0l152.791,2.481L17.419,379.008L16.04,225.085
		C16.002,220.109,19.164,212.361,22.683,208.843z M388.709,30.286l12.242-12.249c0.333-0.006,0.693-0.014,1.074-0.014
		c8.104,0,17.841,2.356,22.979,12.263H388.709z"/>
</g>
<g>
</g>
<g>
</g>
<g>
</g>
<g>
</g>
<g>
</g>
<g>
</g>
<g>
</g>
<g>
</g>
<g>
</g>
<g>
</g>
<g>
</g>
<g>
</g>
<g>
</g>
<g>
</g>
<g>
</g>
</svg>
